<svg xmlns="http://www.w3.org/2000/svg" shape-rendering="geometricPrecision" text-rendering="geometricPrecision" image-rendering="optimizeQuality" fill-rule="evenodd" clip-rule="evenodd" viewBox="0 0 512 336.62"><path d="M23.09 0h465.82C501.58 0 512 10.42 512 23.09v290.44c0 12.67-10.42 23.09-23.09 23.09H23.09C10.42 336.62 0 326.2 0 313.53V23.09C0 10.42 10.42 0 23.09 0zm31.63 281.7c-2.39 0-2.42-2.43-2-4.12 3.59-28.41 14.57-27.41 30.32-31.47 7.58-1.95 24.88-9.54 23.05-19.33-3.82-3.54-7.61-8.43-8.27-15.72l-.46.01c-1.05-.02-2.08-.26-3.03-.8-2.11-1.2-3.26-3.49-3.81-6.11-.71-3.32-.48-7.25-.13-9.73l.13-.48c.73-2.05 1.64-3.16 2.79-3.65l.04-.01c-.53-9.86 1.13-20.36-8.99-23.42 19.99-24.71 43.04-38.14 60.34-16.16 19.28 1 27.88 24.3 15.91 39.59h-.51c1.16.49 2.06 1.6 2.8 3.65l.13.48c.34 2.48.58 6.41-.13 9.73-.55 2.62-1.71 4.91-3.82 6.11-.95.54-1.97.78-3.03.8l-.46-.01c-.66 7.29-4.46 12.18-8.27 15.72-1.84 9.79 15.49 17.38 23.06 19.33 15.76 4.05 26.75 3.06 30.34 31.47.42 1.69.39 4.12-2 4.12h-144zm189.35-101.67c-13.61 0-13.61-24.86 0-24.86h204.89c13.61 0 13.6 24.86 0 24.86H244.07zm151.66 50.78c-13.61 0-13.61-24.85 0-24.85h53.23c13.61 0 13.6 24.85 0 24.85h-53.23zm-151.66 0c-13.61 0-13.61-24.85 0-24.85h112.16c13.61 0 13.6 24.85 0 24.85H244.07zm0 50.89c-13.61 0-13.61-24.85 0-24.85h205.11c13.6 0 13.6 24.85 0 24.85H244.07zM58.85 45.92H364.6c4.39 0 7.98 3.6 7.98 7.98v42.4c0 4.38-3.6 7.98-7.98 7.98H58.85c-4.38 0-7.98-3.59-7.98-7.98V53.9c0-4.39 3.59-7.98 7.98-7.98zm348.31 0h45.99c4.39 0 7.99 3.6 7.99 7.98v42.4c0 4.38-3.61 7.98-7.99 7.98h-45.99c-4.38 0-7.99-3.59-7.99-7.98V53.9c0-4.39 3.6-7.98 7.99-7.98z"/></svg>